<svg width="82" height="60" viewBox="0 0 82 60" fill="none" xmlns="http://www.w3.org/2000/svg">
<rect width="82" height="60" fill="#5A5A5A"/>
<g filter="url(#filter0_d_1_4)">
<rect x="8" y="13" width="28" height="34" rx="1" fill="#D9D9D9"/>
<rect x="9" y="14" width="26" height="24" rx="2" fill="#555555"/>
<rect x="10" y="40" width="24" height="1" fill="#555555"/>
<rect x="15" y="43" width="15" height="1" fill="#555555"/>
</g>
<g filter="url(#filter1_d_1_4)">
<rect x="46" y="13" width="28" height="34" rx="1" fill="#D9D9D9"/>
<rect x="47" y="14" width="26" height="24" rx="2" fill="#555555"/>
<rect x="48" y="40" width="24" height="1" fill="#555555"/>
<rect x="53" y="43" width="15" height="1" fill="#555555"/>
</g>
<path d="M8 8H10L9 9V10H10V9L11 8L12 9V10H13V8H15L14 9L15 10H16V8L17 9V10H18L19 8V10H21L20 9V8L21 9L22 10V9H23L24 8V11H8V8Z" fill="black"/>
<rect x="26" y="10" width="5" height="1" fill="#FF6161"/>
<path d="M79.0061 25.5061L76.7561 26.8052V24.2071L79.0061 25.5061Z" fill="#D9D9D9"/>
<path d="M3 25.5L5.25 24.201V26.799L3 25.5Z" fill="#D9D9D9"/>
<defs>
<filter id="filter0_d_1_4" x="4" y="13" width="36" height="42" filterUnits="userSpaceOnUse" color-interpolation-filters="sRGB">
<feFlood flood-opacity="0" result="BackgroundImageFix"/>
<feColorMatrix in="SourceAlpha" type="matrix" values="0 0 0 0 0 0 0 0 0 0 0 0 0 0 0 0 0 0 127 0" result="hardAlpha"/>
<feOffset dy="4"/>
<feGaussianBlur stdDeviation="2"/>
<feComposite in2="hardAlpha" operator="out"/>
<feColorMatrix type="matrix" values="0 0 0 0 0 0 0 0 0 0 0 0 0 0 0 0 0 0 0.25 0"/>
<feBlend mode="normal" in2="BackgroundImageFix" result="effect1_dropShadow_1_4"/>
<feBlend mode="normal" in="SourceGraphic" in2="effect1_dropShadow_1_4" result="shape"/>
</filter>
<filter id="filter1_d_1_4" x="42" y="13" width="36" height="42" filterUnits="userSpaceOnUse" color-interpolation-filters="sRGB">
<feFlood flood-opacity="0" result="BackgroundImageFix"/>
<feColorMatrix in="SourceAlpha" type="matrix" values="0 0 0 0 0 0 0 0 0 0 0 0 0 0 0 0 0 0 127 0" result="hardAlpha"/>
<feOffset dy="4"/>
<feGaussianBlur stdDeviation="2"/>
<feComposite in2="hardAlpha" operator="out"/>
<feColorMatrix type="matrix" values="0 0 0 0 0 0 0 0 0 0 0 0 0 0 0 0 0 0 0.25 0"/>
<feBlend mode="normal" in2="BackgroundImageFix" result="effect1_dropShadow_1_4"/>
<feBlend mode="normal" in="SourceGraphic" in2="effect1_dropShadow_1_4" result="shape"/>
</filter>
</defs>
</svg>
